
<svg xmlns="http://www.w3.org/2000/svg" version="1.1" xmlns:xlink="http://www.w3.org/1999/xlink" preserveAspectRatio="none" x="0px" y="0px" width="260px" height="260px" viewBox="0 0 260 260">
<defs>
<g id="Layer2_0_FILL">
<path fill="#024258" stroke="none" d="
M 260 50
L 0 50 0 220 260 220 260 50 Z"/>
</g>

<g id="Layer1_0_FILL">
<path fill="#FFFFFF" stroke="none" d="
M 250 60
L 10 60 10 210 250 210 250 60 Z"/>
</g>

<g id="Layer0_0_FILL">
<path fill="#024258" stroke="none" d="
M 233 93
L 233 78 130 123.75 27 78 27 93 129.85 138.7 129.85 138.8 130 138.75 130.15 138.8 130.15 138.65 233 93 Z"/>
</g>
</defs>

<g transform="matrix( 1, 0, 0, 1, 0,0) ">
<use xlink:href="#Layer2_0_FILL"/>
</g>

<g transform="matrix( 1, 0, 0, 1, 0,0) ">
<use xlink:href="#Layer1_0_FILL"/>
</g>

<g transform="matrix( 1, 0, 0, 1, 0,0) ">
<use xlink:href="#Layer0_0_FILL"/>
</g>
</svg>
